# xmcd
#
# Track frame offsets:
#	150
#	13575
#	37500
#	53550
#	72150
#	88800
#	108150
#	124500
#	139350
#	149175
#	157650
#	172200
#	185250
#
# Disc length: 2869 seconds
#
# Revision: 0
# Processed by: cddbd v1.5.2PL0 Copyright (c) Steve Scherf et al.
# Submitted via: EasyCDDAExtractor 16.0.6.1
#
DISCID=aa0b330d
DTITLE=Χορ. Εθν. Εκκλησ. μουσικής - Μουσική των Ελλήνων 1
DYEAR=1996
DGENRE=Ποικίλη
TTITLE0=Κεκραγάρια [ήχος λέγετος, κυρ Αβραάμ Ευθυμιάδη]
TTITLE1=Τω Σωτήρι Θεώ [ήχος πλάγιος α', εκλ. αργών καταβασιών Αναλήψεως]
TTITLE2=Πάσα πνοή [ήχος γ'(Χουρμουζίου χαρτοφύλ.), Χρυσάφου Νέου σε αργό δρ.]
TTITLE3=Κύριε τον παράλυτον [ήχος πλάγιος δ', Δόξα εσπερ. Κυριακής]
TTITLE4=Εκλογή δοξολογίας [ήχ. βαρύς σκληρού διατόνου, Χουρμουζίου χαρτ/κος 
TTITLE5=Σε υμνούμεν-Άξιον Εστί [ήχ. λέγετος (πλ. β' διατονικός), Θ. Βασιλείου]
TTITLE6=Σαράντα Ευζωνάκια [ήχος α', ιστορικό Μακεδονίας]
TTITLE7=Τώρα που 'στήσαν το χορό [ήχ. β' μαλακός χρωματικός, συρτό Μακεδονίας]
TTITLE8=Μήλο μου κόκκινο [ήχος έσω γ', συρτό γάμου Αν. Μακεδονίας]
TTITLE9=Κυρα Μαρία [ήχος δ', συρτό γιδιώτικο]
TTITLE10=Ας χαμηλώναν τα βουνά [ήχος πλάγιος α', συρτός του Παγγαίου]
TTITLE11=Μαύρα μάτια είδ' απόψε [ήχος α' βαρύς, συρτός Παγγαίου]
TTITLE12=Μιά βοσκοπούλα ροϊδουπλασμένη [ήχ. πλάγ. δ' χρωμ., αστ. καθιστ. Μακεδ
TTITLE12=]
EXTD=
EXTT0=
EXTT1=
EXTT2=
EXTT3=
EXTT4=
EXTT5=
EXTT6=
EXTT7=
EXTT8=
EXTT9=
EXTT10=
EXTT11=
EXTT12=
PLAYORDER=
